<?xml version="1.0" encoding="iso-8859-1"?>
<!-- Generator: Adobe Illustrator 19.0.0, SVG Export Plug-In . SVG Version: 6.00 Build 0)  -->
<svg version="1.1" id="Capa_1" xmlns="http://www.w3.org/2000/svg" xmlns:xlink="http://www.w3.org/1999/xlink" x="0px" y="0px"
	 viewBox="0 0 512 512" style="enable-background:new 0 0 512 512;" xml:space="preserve">
<g>
	<g>
		<g>
			<path d="M423.329,400.442L334.4,355.8c-8.56-4.354-13.958-13.138-13.975-22.741l0.117-32.075
				c2.046-2.575,4.267-5.508,6.683-8.908c11.494-16.345,20.614-34.237,27.088-53.142h4.087c10.813-0.033,20.435-6.868,24.028-17.067
				h15.568c11.892-0.866,20.871-11.141,20.138-23.042v-56.317c0.734-11.9-8.246-22.175-20.138-23.042h-15.568
				c-2.577-7.229-8.266-12.917-15.494-15.494V93.058c1.8-21.929-5.176-43.676-19.396-60.467
				c-14.794-16.86-36.87-27.149-65.632-30.905c-0.107-0.004-0.197-0.061-0.306-0.061l-0.091,0.018
				c-16.937-2.191-34.086-2.191-51.023-0.001L230.4,1.625c-0.102,0-0.186,0.054-0.288,0.058
				c-28.805,3.754-50.906,14.051-65.704,30.926C150.2,49.4,143.243,71.147,145.066,93.067v10.906
				c-7.229,2.577-12.917,8.266-15.494,15.494h-15.568c-11.892,0.866-20.871,11.141-20.138,23.042v56.317
				c-0.734,11.901,8.246,22.175,20.138,23.042h15.569c3.321,9.319,11.734,15.875,21.582,16.819
				c6.563,22.454,17.102,43.549,31.116,62.281v31.15c0.013,9.408-5.129,18.068-13.396,22.558l-82.862,45.308
				c-26.749,14.673-43.367,42.766-43.346,73.276v30.208c-0.001,2.263,0.898,4.434,2.499,6.035c1.6,1.6,3.771,2.499,6.035,2.499
				h409.6c2.263,0.001,4.434-0.898,6.035-2.499c1.6-1.6,2.499-3.771,2.499-6.035V475.05
				C469.452,443.451,451.616,414.525,423.329,400.442z M384,136.533h13.996c1.054,0,3.071,2.325,3.071,5.975v56.317
				c0,3.65-2.017,5.975-3.071,5.975H384V136.533z M128,204.8h-13.996c-1.054,0-3.071-2.325-3.071-5.975v-56.317
				c0-3.65,2.017-5.975,3.071-5.975H128V204.8z M290.133,20.34c16.953,2.737,32.55,10.93,44.425,23.335
				c11.159,13.32,16.677,30.471,15.379,47.8c-0.046,0.368-0.07,0.738-0.071,1.108v9.817h-59.733V20.34z M238.933,17.879
				c5.449-0.481,11.07-0.812,17.067-0.812s11.618,0.331,17.067,0.813v84.52h-34.133V17.879z M177.391,43.692L177.391,43.692
				c11.885-12.422,27.502-20.623,44.475-23.355V102.4h-59.733v-9.817c-0.001-0.362-0.024-0.724-0.071-1.084
				C160.74,74.174,166.241,57.018,177.391,43.692z M145.066,213.333V128c0.005-4.711,3.822-8.529,8.533-8.533h204.8
				c4.711,0.005,8.529,3.822,8.533,8.533v85.333c-0.005,4.711-3.822,8.529-8.533,8.533H153.6
				C148.889,221.862,145.071,218.044,145.066,213.333z M177.041,369.658c13.758-7.474,22.316-21.884,22.296-37.542v-31.15
				c-0.001-3.74-1.231-7.377-3.5-10.35c-11.678-15.651-20.712-33.11-26.742-51.683H336.08c-5.734,15.33-13.388,29.871-22.781,43.275
				c-2.208,3.1-4.254,5.8-6,8.008c-2.539,3.043-3.934,6.878-3.942,10.842v32c-0.082,16.091,8.992,30.828,23.396,38l35.869,18.004
				c-13.584,21.83-57.078,37.604-106.623,37.604c-56.932,0-98.176-20.278-108.395-40.913L177.041,369.658z M59.733,494.933l0-21.675
				c-0.019-24.273,13.197-46.626,34.475-58.308l38.383-20.987c14.791,29.368,63.861,49.77,123.409,49.77
				c57.546,0,105.425-18.942,121.883-47.011l37.792,18.97c22.5,11.209,36.686,34.22,36.592,59.358l0,19.883H59.733z"/>
			<path d="M332.8,136.533H179.2c-9.421,0.011-17.056,7.646-17.067,17.067v8.533c0,4.713,3.821,8.533,8.533,8.533
				s8.533-3.82,8.533-8.533V153.6h153.6v8.533c0,4.713,3.82,8.533,8.533,8.533s8.533-3.82,8.533-8.533V153.6
				C349.856,144.179,342.221,136.544,332.8,136.533z"/>
		</g>
	</g>
</g>
<g>
</g>
<g>
</g>
<g>
</g>
<g>
</g>
<g>
</g>
<g>
</g>
<g>
</g>
<g>
</g>
<g>
</g>
<g>
</g>
<g>
</g>
<g>
</g>
<g>
</g>
<g>
</g>
<g>
</g>
</svg>
